<?xml version="1.0" encoding="UTF-8"?>
<svg version="1.1" xmlns="http://www.w3.org/2000/svg" width="500" height="500">
<path d="M0 0 C0.88823456 -0.01377182 1.77646912 -0.02754364 2.69161987 -0.04173279 C4.5762507 -0.06503846 6.46096456 -0.08228669 8.34570312 -0.09399414 C11.21120156 -0.12080384 14.07293967 -0.19564615 16.9375 -0.27148438 C32.30513578 -0.4960481 32.30513578 -0.4960481 36.95703125 3.54296875 C38.04480261 4.81380328 39.09982734 6.1135338 40.1171875 7.44140625 C41.32585816 8.59595489 42.5542439 9.73019175 43.80078125 10.84375 C45.05335596 12.02078258 46.30461561 13.19921588 47.5546875 14.37890625 C48.23136475 15.01497803 48.90804199 15.6510498 49.60522461 16.30639648 C53.30496489 19.78553535 56.99714622 23.27262841 60.6875 26.76171875 C61.81393921 27.82531616 61.81393921 27.82531616 62.96313477 28.91040039 C64.39994693 30.2674512 65.83541643 31.62592555 67.26928711 32.98608398 C67.9319458 33.61200439 68.59460449 34.2379248 69.27734375 34.8828125 C70.13791382 35.69794312 70.13791382 35.69794312 71.01586914 36.52954102 C73.98919552 39.23479475 77.0651018 41.82533279 80.1171875 44.44140625 C80.1171875 34.54140625 80.1171875 24.64140625 80.1171875 14.44140625 C77.10940229 13.43881118 74.57898103 13.13825983 71.4296875 12.87890625 C70.43582031 12.79511719 69.44195312 12.71132812 68.41796875 12.625 C67.65871094 12.56441406 66.89945312 12.50382813 66.1171875 12.44140625 C66.09031471 10.62898573 66.07085035 8.81645392 66.0546875 7.00390625 C66.04308594 5.99457031 66.03148437 4.98523438 66.01953125 3.9453125 C66.1171875 1.44140625 66.1171875 1.44140625 67.1171875 0.44140625 C68.55459103 0.34326638 69.99675077 0.31342345 71.4375 0.31201172 C72.35515137 0.30885956 73.27280273 0.3057074 74.21826172 0.30245972 C75.71510498 0.30549606 75.71510498 0.30549606 77.2421875 0.30859375 C78.25941895 0.30763702 79.27665039 0.3066803 80.32470703 0.30569458 C82.48014386 0.30501264 84.63558272 0.3068679 86.79101562 0.31103516 C90.10291121 0.3163832 93.41467117 0.31109062 96.7265625 0.3046875 C98.81510447 0.30534828 100.90364635 0.30662944 102.9921875 0.30859375 C103.99008301 0.30656952 104.98797852 0.30454529 106.01611328 0.30245972 C106.93376465 0.30561188 107.85141602 0.30876404 108.796875 0.31201172 C109.60882324 0.31280731 110.42077148 0.31360291 111.25732422 0.31442261 C113.1171875 0.44140625 113.1171875 0.44140625 114.1171875 1.44140625 C114.26029037 5.11056395 114.15940412 8.76856066 114.1171875 12.44140625 C109.8271875 13.10140625 105.5371875 13.76140625 101.1171875 14.44140625 C100.7871875 36.55140625 100.4571875 58.66140625 100.1171875 81.44140625 C79.1171875 81.44140625 79.1171875 81.44140625 73.69921875 78.29296875 C71.73413086 76.25952148 71.73413086 76.25952148 69.9296875 74.06640625 C69.24592041 73.33558838 68.56215332 72.60477051 67.85766602 71.85180664 C66.51101155 70.40687719 65.18576619 68.9416127 63.88574219 67.45458984 C61.55448412 64.80086897 59.07695335 62.3513401 56.5546875 59.87890625 C55.78898437 59.10289062 55.02328125 58.326875 54.234375 57.52734375 C51.67435873 55.0051137 48.97688787 52.6851502 46.24609375 50.3515625 C43.602413 47.97952601 41.11052704 45.46882527 38.6171875 42.94140625 C34.28062452 38.55652502 29.81311895 34.43420358 25.1171875 30.44140625 C24.7871875 30.11140625 24.4571875 29.78140625 24.1171875 29.44140625 C24.1171875 42.64140625 24.1171875 55.84140625 24.1171875 69.44140625 C29.0671875 69.77140625 34.0171875 70.10140625 39.1171875 70.44140625 C40.3171875 78.84140625 40.3171875 78.84140625 39.1171875 81.44140625 C36.30295564 82.37948354 34.58876599 82.56785669 31.67749023 82.57080078 C30.33611244 82.57552902 30.33611244 82.57552902 28.96763611 82.58035278 C28.00507401 82.57832855 27.0425119 82.57630432 26.05078125 82.57421875 C25.06094742 82.57517548 24.07111359 82.5761322 23.05128479 82.57711792 C20.95907528 82.57779844 18.86686366 82.57595308 16.7746582 82.57177734 C13.56391689 82.56642165 10.35331511 82.5717296 7.14257812 82.578125 C5.11197886 82.57746431 3.08137968 82.57618333 1.05078125 82.57421875 C0.08619492 82.57624298 -0.87839142 82.57826721 -1.87220764 82.58035278 C-2.76330734 82.57720062 -3.65440704 82.57404846 -4.57250977 82.57080078 C-5.35844009 82.57000519 -6.14437042 82.56920959 -6.95411682 82.56838989 C-8.8828125 82.44140625 -8.8828125 82.44140625 -10.8828125 81.44140625 C-10.90969401 79.79566059 -10.92915373 78.14979212 -10.9453125 76.50390625 C-10.95691406 75.58738281 -10.96851563 74.67085938 -10.98046875 73.7265625 C-10.8828125 71.44140625 -10.8828125 71.44140625 -9.8828125 70.44140625 C-6.84558693 70.19661494 -3.80940644 70.0573226 -0.765625 69.91796875 C2.46925661 69.38320512 3.18705844 69.00055938 5.1171875 66.44140625 C5.57135048 64.09875882 5.57135048 64.09875882 5.50537109 61.45092773 C5.51482758 60.43655136 5.52428406 59.42217499 5.5340271 58.37705994 C5.52795441 57.28325516 5.52188171 56.18945038 5.515625 55.0625 C5.51849518 53.9394899 5.52136536 52.8164798 5.52432251 51.65943909 C5.52636481 49.28475439 5.52082346 46.91005294 5.50830078 44.53540039 C5.49223531 40.88975651 5.50815245 37.24521887 5.52734375 33.59960938 C5.52536164 31.29557046 5.52151864 28.99153223 5.515625 26.6875 C5.52169769 25.59167099 5.52777039 24.49584198 5.5340271 23.36680603 C5.52457062 22.35558182 5.51511414 21.3443576 5.50537109 20.30249023 C5.50298431 19.40997055 5.50059753 18.51745087 5.49813843 17.59788513 C5.37242462 16.8862471 5.24671082 16.17460907 5.1171875 15.44140625 C1.71029068 13.1701417 0.01455191 13.10667869 -4.0078125 12.87890625 C-9.78472333 12.53949542 -9.78472333 12.53949542 -10.8828125 11.44140625 C-11.05078125 9.4453125 -11.05078125 9.4453125 -11.0703125 7.00390625 C-11.08449219 6.20082031 -11.09867188 5.39773437 -11.11328125 4.5703125 C-10.48318808 -1.25003969 -4.50579605 0.0608692 0 0 Z " fill="#BDBDBD" transform="translate(254.8828125,209.55859375)"/>
<path d="M0 0 C2.41686133 1.22021584 2.41686133 1.22021584 5.390625 1.0234375 C5.720625 -0.2965625 6.050625 -1.6165625 6.390625 -2.9765625 C11.010625 -2.9765625 15.630625 -2.9765625 20.390625 -2.9765625 C21.28069977 0.58373659 21.51942909 3.22261844 21.5234375 6.84765625 C21.52472656 7.95818359 21.52601562 9.06871094 21.52734375 10.21289062 C21.52347656 11.36724609 21.51960938 12.52160156 21.515625 13.7109375 C21.51949219 14.87689453 21.52335937 16.04285156 21.52734375 17.24414062 C21.52605469 18.35080078 21.52476563 19.45746094 21.5234375 20.59765625 C21.52230957 21.61432373 21.52118164 22.63099121 21.52001953 23.6784668 C21.390625 26.0234375 21.390625 26.0234375 20.390625 27.0234375 C15.94700299 27.69729148 11.8166824 27.86036472 7.390625 27.0234375 C5.26667885 24.99222081 4.19360634 22.99828695 2.8203125 20.41015625 C-1.0188892 14.00099713 -9.08302944 10.81977756 -15.96875 8.71875 C-27.36002452 6.54316323 -40.19979729 6.40091071 -50.609375 12.0234375 C-51.96555999 13.14877855 -51.96555999 13.14877855 -51.671875 16.0859375 C-51.65125 17.0553125 -51.630625 18.0246875 -51.609375 19.0234375 C-47.55350376 21.2120317 -43.9428728 22.5913071 -39.421875 23.4609375 C-38.8038501 23.58090088 -38.1858252 23.70086426 -37.54907227 23.82446289 C-31.93019054 24.87225295 -26.27635466 25.65620782 -20.61767578 26.45483398 C13.34983597 31.26918185 13.34983597 31.26918185 21.85546875 40.63671875 C25.70562808 46.1584775 25.93534272 51.52644072 25.390625 58.0234375 C22.98624005 65.61623207 19.1700398 70.20643323 12.453125 74.2109375 C-5.09068546 83.01751429 -28.78874551 82.67428796 -47.33203125 77.11328125 C-48.41355469 76.75363281 -49.49507812 76.39398438 -50.609375 76.0234375 C-52.60852121 75.43718481 -54.60841416 74.85346637 -56.609375 74.2734375 C-57.94395217 73.86077219 -59.27787689 73.44593209 -60.609375 73.0234375 C-61.269375 74.6734375 -61.929375 76.3234375 -62.609375 78.0234375 C-64.92181292 78.05029162 -67.2343377 78.06976591 -69.546875 78.0859375 C-70.83464844 78.09753906 -72.12242188 78.10914063 -73.44921875 78.12109375 C-76.609375 78.0234375 -76.609375 78.0234375 -77.609375 77.0234375 C-77.69721042 74.80488486 -77.71632109 72.58355254 -77.70703125 70.36328125 C-77.7056163 69.69881485 -77.70420135 69.03434845 -77.70274353 68.3497467 C-77.69713018 66.22009851 -77.68457554 64.09055411 -77.671875 61.9609375 C-77.66686171 60.52018381 -77.66229851 59.07942847 -77.65820312 57.63867188 C-77.64715645 54.10022648 -77.62988292 50.56184211 -77.609375 47.0234375 C-73.52950578 44.98350289 -68.99967136 45.07698974 -64.609375 46.0234375 C-62.39659206 48.00746355 -60.97310836 50.1027977 -59.32421875 52.5703125 C-53.96121946 60.24221126 -45.95804269 64.09459598 -36.88818359 65.73046875 C-32.20324726 66.33277469 -27.51551946 66.42217371 -22.796875 66.4609375 C-21.34740479 66.4762854 -21.34740479 66.4762854 -19.86865234 66.49194336 C-13.15567724 66.40945879 -5.5906292 66.0046917 -0.609375 61.0234375 C-0.02586995 58.56634375 -0.02586995 58.56634375 -0.609375 56.0234375 C-4.90389601 52.62576425 -9.67314364 51.99610802 -14.921875 51.0859375 C-15.83541748 50.91827881 -16.74895996 50.75062012 -17.69018555 50.57788086 C-22.70530544 49.669317 -27.72963189 48.8387725 -32.765625 48.0546875 C-67.644922 42.59798336 -67.644922 42.59798336 -74.921875 32.9609375 C-78.19266152 27.26734616 -78.73945584 21.23069793 -77.03125 14.87109375 C-73.94997516 7.79816741 -68.28897352 2.81338998 -61.4375 -0.51953125 C-42.28568297 -7.90727968 -18.76641829 -8.87046547 0 0 Z " fill="#BEBEBE" transform="translate(83.609375,212.9765625)"/>
<path d="M0 0 C7.40016302 6.70798821 12.28355719 14.90661504 13.1171875 24.8984375 C13.4520524 37.28843892 10.73807304 47.08616653 2.33984375 56.32421875 C1.51484375 57.06671875 0.68984375 57.80921875 -0.16015625 58.57421875 C-1.24296875 59.56421875 -1.24296875 59.56421875 -2.34765625 60.57421875 C-20.30435733 73.34342841 -45.2499638 74.76075478 -66.41015625 71.44921875 C-80.59849076 68.95990288 -94.07282117 63.18407005 -102.59765625 51.07421875 C-108.85384524 40.58225307 -110.0482896 29.79983671 -107.31640625 17.8984375 C-103.28653309 6.31255217 -96.09289715 -1.10631467 -85.16015625 -6.42578125 C-59.2866623 -18.1420804 -23.24633006 -17.84421628 0 0 Z M-74.16015625 9.57421875 C-79.97663538 18.46802114 -80.58415443 29.53783396 -78.53515625 39.82421875 C-75.58255459 47.87676873 -71.5528516 53.30351736 -63.9296875 57.41796875 C-54.3131311 61.43277932 -43.19336036 61.81086833 -33.47265625 57.94921875 C-26.33381868 54.37979996 -20.73921331 49.65665454 -17.84375 42.08984375 C-14.97429108 31.53023492 -15.77515235 20.95972406 -21.03125 11.3203125 C-25.59068641 4.26817383 -32.18071274 0.50686983 -40.16015625 -1.42578125 C-53.31836995 -2.66115939 -65.21970048 -0.84225566 -74.16015625 9.57421875 Z " fill="#BEBEBE" transform="translate(230.16015625,220.42578125)"/>
<path d="M0 0 C17.82 0 35.64 0 54 0 C54 3.96 54 7.92 54 12 C51.36 12.33 48.72 12.66 46 13 C49.72525463 18.30566568 53.73512883 22.89332336 58.4609375 27.3359375 C60 29 60 29 60 31 C67.431085 30.16563256 71.62686115 23.8850774 76.13671875 18.40234375 C77.78808276 16.28873181 79.41123635 14.1609229 81 12 C79.865625 12.020625 78.73125 12.04125 77.5625 12.0625 C74 12 74 12 73 11 C72.92773498 9.14712498 72.9161878 7.29166122 72.9375 5.4375 C72.94652344 4.42558594 72.95554687 3.41367188 72.96484375 2.37109375 C72.97644531 1.58863281 72.98804688 0.80617187 73 0 C79.1055471 -0.02464513 85.21106551 -0.04283371 91.31665039 -0.05493164 C93.39543156 -0.05997288 95.47420916 -0.06680574 97.55297852 -0.07543945 C100.53402586 -0.08751422 103.51502649 -0.09323024 106.49609375 -0.09765625 C107.89921059 -0.10539818 107.89921059 -0.10539818 109.33067322 -0.11329651 C110.19149002 -0.11337204 111.05230682 -0.11344757 111.93920898 -0.11352539 C113.08171364 -0.11685631 113.08171364 -0.11685631 114.24729919 -0.12025452 C116 0 116 0 117 1 C117.09823937 2.66429051 117.12973631 4.33281931 117.125 6 C117.12886719 7.36125 117.12886719 7.36125 117.1328125 8.75 C117 11 117 11 116 12 C114.47953167 12.05334977 112.95855659 12.09248887 111.4375 12.125 C104.04869513 12.83869138 100.53542409 16.94971968 95.9609375 22.453125 C94.49093089 24.28127868 93.02769582 26.11489238 91.5703125 27.953125 C88.11764345 32.04595457 84.35671732 35.76949928 80.5168457 39.49658203 C78.99351758 40.98106517 77.49576309 42.48783428 76 44 C75.21882813 44.76054687 74.43765625 45.52109375 73.6328125 46.3046875 C71.24094985 50.25297753 71.52604765 53.72933407 71.6875 58.25 C71.69716797 59.07757813 71.70683594 59.90515625 71.71679688 60.7578125 C71.42664195 64.69586479 71.42664195 64.69586479 73 68 C75.52596259 68.23653523 78.03107207 68.42173692 80.5625 68.5625 C81.27341797 68.60568359 81.98433594 68.64886719 82.71679688 68.69335938 C84.47761912 68.79971777 86.2387832 68.90038846 88 69 C88 72.96 88 76.92 88 81 C68.2 81 48.4 81 28 81 C28 77.04 28 73.08 28 69 C29.07121094 68.93941406 30.14242188 68.87882812 31.24609375 68.81640625 C32.64324391 68.73201463 34.04037857 68.64736594 35.4375 68.5625 C36.14455078 68.52318359 36.85160156 68.48386719 37.58007812 68.44335938 C41.08690419 68.52375562 41.08690419 68.52375562 44 67 C45.11235773 60.3847865 46.22588437 52.85407757 42.734375 46.80859375 C39.46298326 42.62407082 35.61733931 39.05091905 31.66601562 35.51708984 C29.67281822 33.70206512 27.91840631 31.75222395 26.1875 29.6875 C22.79859155 25.73377348 19.26306589 21.91976722 15.72265625 18.1015625 C14 16 14 16 14 14 C13.00097656 13.86722656 12.00195312 13.73445312 10.97265625 13.59765625 C9.68230469 13.42105469 8.39195312 13.24445313 7.0625 13.0625 C5.13083984 12.80146484 5.13083984 12.80146484 3.16015625 12.53515625 C0 12 0 12 -1 11 C-1.23529412 3.70588235 -1.23529412 3.70588235 0 0 Z " fill="#BEBEBE" transform="translate(376,210)"/>
<path d="M0 0 C2.8125 1.5625 2.8125 1.5625 5 4 C5.92995212 7.47182124 6.34268246 9.84734082 5.3125 13.3125 C2.96041965 16.3366033 0.80754451 16.89690921 -2.9375 17.375 C-6.80786747 16.90107745 -8.33642446 15.81577986 -11 13 C-12.15396814 9.99968284 -12.12583833 8.48047363 -11.3125 5.375 C-8.59286709 0.4537595 -5.54702371 -0.79243196 0 0 Z M-8 7 C-7 11 -7 11 -7 11 Z M0 9 C0.66 9.66 1.32 10.32 2 11 C2 10.34 2 9.68 2 9 C1.34 9 0.68 9 0 9 Z M-3 11 C-3.99 12.485 -3.99 12.485 -5 14 C-3.68 13.67 -2.36 13.34 -1 13 C-1.66 12.34 -2.32 11.68 -3 11 Z " fill="#717171" transform="translate(488,275)"/>
<path d="M0 0 C2.9375 0.75 2.9375 0.75 4.9375 2.75 C5.0625 6.375 5.0625 6.375 4.9375 9.75 C2.9575 10.74 2.9575 10.74 0.9375 11.75 C0.2775 11.09 -0.3825 10.43 -1.0625 9.75 C-3.0425 10.74 -3.0425 10.74 -5.0625 11.75 C-6.243433 8.207201 -6.33278374 5.46640139 -6.0625 1.75 C-3.0625 -0.25 -3.0625 -0.25 0 0 Z M1.9375 6.75 C2.5975 7.41 3.2575 8.07 3.9375 8.75 C3.9375 8.09 3.9375 7.43 3.9375 6.75 C3.2775 6.75 2.6175 6.75 1.9375 6.75 Z " fill="#8B8B8B" transform="translate(486.0625,277.25)"/>
<path d="M0 0 C0.33 0 0.66 0 1 0 C1.33 2.97 1.66 5.94 2 9 C4.64 9.33 7.28 9.66 10 10 C9.67 10.99 9.34 11.98 9 13 C3.375 13.25 3.375 13.25 0 11 C-1.16461426 7.50615721 -1.13568319 4.66344611 -1 1 C-0.67 0.67 -0.34 0.34 0 0 Z " fill="#616161" transform="translate(479,279)"/>
<path d="M0 0 C0.93423645 3.01031744 1.04449911 3.86650268 0 7 C-2.4375 6.3125 -2.4375 6.3125 -5 5 C-5.8125 2.375 -5.8125 2.375 -6 0 C-3.50907189 -1.24546405 -2.58919267 -0.7767578 0 0 Z " fill="#ADADAD" transform="translate(488,281)"/>
<path d="M0 0 C0.66 0.66 1.32 1.32 2 2 C1.66302652 8.17784711 1.66302652 8.17784711 -0.5625 10.9375 C-1.036875 11.288125 -1.51125 11.63875 -2 12 C-2.66 11.67 -3.32 11.34 -4 11 C-2.625 8.5 -2.625 8.5 -1 6 C-0.34 6 0.32 6 1 6 C0.67 4.02 0.34 2.04 0 0 Z " fill="#7B7B7B" transform="translate(492,279)"/>
<path d="M0 0 C0.66 0.33 1.32 0.66 2 1 C2 4.33333333 2 7.66666667 2 11 C1.01 10.67 0.02 10.34 -1 10 C-1.02689216 8.52093108 -1.04634621 7.04172517 -1.0625 5.5625 C-1.07410156 4.73878906 -1.08570313 3.91507812 -1.09765625 3.06640625 C-1 1 -1 1 0 0 Z " fill="#888888" transform="translate(481,278)"/>
<path d="M0 0 C2.64 0 5.28 0 8 0 C7.67 0.99 7.34 1.98 7 3 C5.02 3 3.04 3 1 3 C0.67 2.01 0.34 1.02 0 0 Z " fill="#696969" transform="translate(481,289)"/>
<path d="M0 0 C1.32 0 2.64 0 4 0 C4 2.31 4 4.62 4 7 C2.02 7.99 2.02 7.99 0 9 C0.556875 7.88625 0.556875 7.88625 1.125 6.75 C2.29515863 4.05716353 2.29515863 4.05716353 1.125 1.6875 C0.75375 1.130625 0.3825 0.57375 0 0 Z " fill="#919191" transform="translate(487,280)"/>
</svg>
