<?xml version="1.0" encoding="UTF-8"?>
<svg version="1.1" xmlns="http://www.w3.org/2000/svg" width="500" height="500">
<path d="M0 0 C0.88602402 0.00222061 1.77204803 0.00444122 2.68492126 0.00672913 C3.68588333 0.00680466 4.6868454 0.00688019 5.71813965 0.00695801 C6.80666733 0.01211929 7.89519501 0.01728058 9.01670837 0.02259827 C10.67928932 0.02472069 10.67928932 0.02472069 12.37545776 0.02688599 C15.93168281 0.03250418 19.48784596 0.04505977 23.04405212 0.05775452 C25.44834809 0.06276717 27.85264504 0.06733048 30.25694275 0.07142639 C36.16516716 0.08247952 42.07335522 0.09923535 47.98155212 0.12025452 C51.10616662 32.59212759 54.18950668 65.06756483 57.15616608 97.55428314 C57.3565154 99.74485299 57.55773782 101.93534105 57.75920105 104.12580872 C58.1356019 108.22005903 58.50807362 112.31465684 58.87998962 116.40931702 C58.99219849 117.62734009 59.10440735 118.84536316 59.22001648 120.10029602 C59.32098633 121.22014893 59.42195618 122.34000183 59.52598572 123.49378967 C59.61447784 124.46514862 59.70296997 125.43650757 59.79414368 126.43730164 C59.97265068 128.99282081 59.98155212 131.55850843 59.98155212 134.12025452 C47.11155212 134.12025452 34.24155212 134.12025452 20.98155212 134.12025452 C20.65155212 127.85025452 20.32155212 121.58025452 19.98155212 115.12025452 C5.79155212 115.45025452 -8.39844788 115.78025452 -23.01844788 116.12025452 C-25.65844788 121.73025452 -28.29844788 127.34025452 -31.01844788 133.12025452 C-34.9641089 137.06591554 -49.20007296 135.22717893 -54.76844788 135.24525452 C-55.54752502 135.2498468 -56.32660217 135.25443909 -57.12928772 135.25917053 C-62.49383497 135.2450026 -67.6953487 134.78829286 -73.01844788 134.12025452 C-71.77478088 130.15039395 -70.32730749 126.5243238 -68.40126038 122.83900452 C-67.88337952 121.84441223 -67.36549866 120.84981995 -66.83192444 119.8250885 C-66.27472717 118.76749329 -65.71752991 117.70989807 -65.14344788 116.62025452 C-64.56046936 115.50658508 -63.97749084 114.39291565 -63.37684631 113.24549866 C-59.26832424 105.42384693 -55.06842353 97.65537523 -50.81507874 89.91175842 C-46.37291865 81.810969 -42.03293677 73.65790829 -37.70594788 65.49525452 C-36.24901818 62.74780482 -34.79196889 60.00041857 -33.33485413 57.25306702 C-32.97427917 56.57317215 -32.61370422 55.89327728 -32.24220276 55.19277954 C-24.1263819 39.89469428 -15.97030729 24.61719003 -7.64344788 9.43275452 C-7.18470276 8.59454163 -6.72595764 7.75632874 -6.25331116 6.89271545 C-5.63045227 5.76204651 -5.63045227 5.76204651 -4.99501038 4.60853577 C-4.63487854 3.95409485 -4.2747467 3.29965393 -3.90370178 2.62538147 C-2.44524436 0.14568208 -2.44524436 0.14568208 0 0 Z M14.98155212 32.12025452 C6.4277543 50.6973205 -2.08118981 69.2692666 -10.01844788 88.12025452 C-0.44844788 88.12025452 9.12155212 88.12025452 18.98155212 88.12025452 C18.71837245 81.26991758 18.45298886 74.41973927 18.18199158 67.56971741 C18.09052617 65.24099191 18.00034279 62.91221569 17.91148376 60.58338928 C17.78329256 57.22964946 17.6504419 53.8761211 17.51670837 50.52259827 C17.4781221 49.48691208 17.43953583 48.45122589 17.39978027 47.38415527 C17.18957335 42.22713355 16.83384524 37.21215953 15.98155212 32.12025452 C15.65155212 32.12025452 15.32155212 32.12025452 14.98155212 32.12025452 Z " fill="#BEBEBE" transform="translate(394.01844787597656,133.87974548339844)"/>
<path d="M0 0 C0.68396851 0.06571198 1.36793701 0.13142395 2.07263184 0.1991272 C13.42492173 1.30621087 13.42492173 1.30621087 15.8125 2.5 C15.55261194 8.748259 15.28537914 14.99617225 15.01293945 21.24389648 C14.92106031 23.37110197 14.83088798 25.49838186 14.74243164 27.62573242 C14.61528758 30.67647964 14.48208759 33.72691007 14.34765625 36.77734375 C14.30906998 37.73462875 14.2704837 38.69191376 14.23072815 39.6782074 C14.17077919 40.99946373 14.17077919 40.99946373 14.10961914 42.34741211 C14.07630997 43.12684677 14.04300079 43.90628143 14.00868225 44.70933533 C13.8125 46.5 13.8125 46.5 12.8125 47.5 C6.58843831 47.36071577 0.45082556 46.1101189 -5.63305664 44.88793945 C-18.44335543 42.31761689 -31.2902973 40.43893478 -44.25 38.8125 C-45.04875549 38.71022095 -45.84751099 38.60794189 -46.67047119 38.50256348 C-52.5021688 37.76070409 -58.33941164 37.0989833 -64.1875 36.5 C-65.58328278 36.35695938 -65.58328278 36.35695938 -67.00726318 36.21102905 C-85.30241614 34.41114678 -103.53330531 34.15555261 -121.89746094 34.18432617 C-125.07664201 34.18894025 -128.25543882 34.18207794 -131.43457031 34.16381836 C-159.9212774 34.0020258 -188.05226153 35.62186759 -216.25 39.875 C-216.9631134 39.9801593 -217.67622681 40.0853186 -218.41094971 40.19366455 C-231.7676092 42.16511233 -245.01250907 44.54159323 -258.1875 47.5 C-259.30189453 47.74975586 -260.41628906 47.99951172 -261.56445312 48.25683594 C-301.70860317 57.37239196 -341.65370565 69.50332646 -379.2890625 86.31640625 C-382.1875 87.5 -382.1875 87.5 -385.1875 87.5 C-385.1875 85.52 -385.1875 83.54 -385.1875 81.5 C-350.61046032 63.71436617 -314.85138583 48.43518088 -278.1875 35.5 C-277.03991211 35.09330078 -275.89232422 34.68660156 -274.70996094 34.26757812 C-190.03396532 4.50211984 -98.09695767 -8.59219889 0 0 Z " fill="#BEBEBE" transform="translate(439.1875,296.5)"/>
<path d="M0 0 C1.76192688 -0.01441132 1.76192688 -0.01441132 3.55944824 -0.02911377 C5.47038269 -0.03548859 5.47038269 -0.03548859 7.41992188 -0.04199219 C9.37291199 -0.0505423 9.37291199 -0.0505423 11.36535645 -0.05926514 C14.12264395 -0.0697715 16.87990232 -0.07561701 19.63720703 -0.07910156 C23.17500558 -0.08459551 26.71242103 -0.10864361 30.25009918 -0.13707352 C33.61920008 -0.16013943 36.98824604 -0.16214498 40.35742188 -0.16699219 C42.26835632 -0.18551239 42.26835632 -0.18551239 44.21789551 -0.20440674 C45.39251343 -0.20140564 46.56713135 -0.19840454 47.77734375 -0.1953125 C49.33382629 -0.20078094 49.33382629 -0.20078094 50.92175293 -0.20635986 C52.14287781 -0.02445099 52.14287781 -0.02445099 53.38867188 0.16113281 C55.75028679 3.70355519 55.84546106 6.46053458 56.07470703 10.57006836 C56.12376694 11.32153137 56.17282684 12.07299438 56.22337341 12.847229 C56.38335527 15.33031148 56.53058836 17.81397813 56.67773438 20.29785156 C56.78619348 22.01997243 56.89544666 23.74204345 57.00546265 25.46406555 C57.29285519 29.99604342 57.56944424 34.52861877 57.84381104 39.06140137 C58.12569743 43.68685012 58.41776522 48.31165457 58.70898438 52.93652344 C59.27886329 62.01079068 59.83733442 71.08572148 60.38867188 80.16113281 C60.97310059 79.04923584 61.5575293 77.93733887 62.15966797 76.79174805 C66.33261874 68.86942423 70.52846262 60.97493108 75.01367188 53.22363281 C75.50456299 52.3701123 75.9954541 51.5165918 76.5012207 50.63720703 C77.56119349 48.79530871 78.62250402 46.95417968 79.68505859 45.11376953 C81.51892314 41.93538634 83.34662995 38.75350892 85.17382812 35.57128906 C88.33637439 30.06752398 91.5115535 24.57123656 94.69677734 19.08056641 C95.7611279 17.24398575 96.82301355 15.40597219 97.88134766 13.56591797 C99.12518738 11.40499858 100.37966578 9.25073883 101.63867188 7.09863281 C101.98502686 6.49164551 102.33138184 5.8846582 102.68823242 5.25927734 C105.04430732 1.275921 105.04430732 1.275921 108.38867188 0.16113281 C111.0240984 0.06430258 113.63227634 0.02114865 116.26757812 0.02832031 C117.03545151 0.02736359 117.80332489 0.02640686 118.59446716 0.02542114 C120.21589235 0.02474123 121.83732029 0.02658239 123.45874023 0.03076172 C125.94521161 0.03611997 128.43150294 0.03080664 130.91796875 0.02441406 C132.49283894 0.02507473 134.06770902 0.02635567 135.64257812 0.02832031 C136.38842667 0.02629608 137.13427521 0.02427185 137.90272522 0.02218628 C143.15873941 0.04616658 143.15873941 0.04616658 145.38867188 1.16113281 C143.93952816 5.01268786 142.17046591 8.5463545 140.18554688 12.14941406 C139.87147385 12.72049393 139.55740082 13.29157379 139.23381042 13.87995911 C138.20550501 15.74642143 137.17240183 17.61017004 136.13867188 19.47363281 C135.7824173 20.11806335 135.42616272 20.7624939 135.05911255 21.42645264 C129.71194511 31.0957733 124.22099307 40.67104849 118.61474609 50.19287109 C113.5509513 58.81725877 108.6924582 67.54863872 103.85546875 76.30175781 C99.60093416 83.99622307 95.27899881 91.64746664 90.8984375 99.27075195 C86.17524525 107.501985 81.54720335 115.78579019 76.93139648 124.07763672 C76.36815674 125.08745605 75.80491699 126.09727539 75.22460938 127.13769531 C74.72493652 128.03568848 74.22526367 128.93368164 73.71044922 129.85888672 C70.73939439 135.03381228 70.73939439 135.03381228 68.49859619 135.84727478 C65.04546622 136.36093898 61.59978428 136.16261664 58.12304688 136.04003906 C57.32964905 136.01642807 56.53625122 135.99281708 55.71881104 135.9684906 C53.19190505 135.89209353 50.66532421 135.80796668 48.13867188 135.72363281 C46.4225418 135.67038811 44.70639599 135.61764788 42.99023438 135.56542969 C38.78950876 135.43651094 34.58905795 135.30066055 30.38867188 135.16113281 C28.6911123 123.89603903 27.35279211 112.60506393 26.07617188 101.28613281 C25.85889649 99.38004446 25.64161111 97.47395724 25.42431641 95.56787109 C24.23127097 85.03790572 23.10680789 74.5031926 22.05664062 63.95800781 C21.94770981 62.8738559 21.83877899 61.78970398 21.72654724 60.67269897 C21.19774358 55.40835888 20.67833971 50.14344577 20.17651367 44.87646484 C19.98463888 42.94787417 19.79235768 41.01932388 19.59960938 39.09082031 C19.48258919 37.80277496 19.48258919 37.80277496 19.36320496 36.4887085 C18.47870359 27.84843513 16.83081781 18.46871695 10.38867188 12.16113281 C4.73409115 8.05222336 -1.82564918 7.10913208 -8.61132812 6.16113281 C-8.23632812 3.72363281 -8.23632812 3.72363281 -7.61132812 1.16113281 C-4.96740021 -0.16083115 -2.9608154 0.01948283 0 0 Z " fill="#BEBEBE" transform="translate(29.611328125,132.8388671875)"/>
<path d="M0 0 C17.42303141 -0.73712825 36.31069953 5.49252325 50.03125 16.1640625 C49.53353441 20.62770231 48.05401894 22.64986831 44.96875 25.8515625 C40.37111629 30.75128432 36.16480397 35.87041028 32.03125 41.1640625 C27.76557684 40.66293757 25.09209657 39.85636793 21.65625 37.2890625 C13.31209525 31.52300208 6.24792178 30.15435241 -3.96875 31.1640625 C-7.52983467 32.49192458 -9.32388566 33.51919816 -11.96875 36.1640625 C-12.53449206 40.36671778 -12.44799008 42.4573535 -10.04296875 46.00390625 C-6.46142233 50.06718114 -1.9171414 52.66040553 2.65625 55.4765625 C16.14220089 64.04682354 29.88783662 73.12871492 35.03125 89.1640625 C37.4728428 100.43295233 34.03426854 110.55666744 28.03125 120.1640625 C18.72486273 132.56674779 6.32429326 139.80913008 -8.96875 142.1640625 C-33.18558638 143.92725544 -56.66430143 141.36471979 -76.96875 127.1640625 C-76.51405827 121.82407824 -73.55863452 118.04822432 -70.65625 113.7265625 C-69.92631836 112.61958008 -69.92631836 112.61958008 -69.18164062 111.49023438 C-67.78534154 109.37605339 -66.37876877 107.26911048 -64.96875 105.1640625 C-64.18336418 103.98583008 -63.39817912 102.80746378 -62.61328125 101.62890625 C-61.79923828 100.40880859 -61.79923828 100.40880859 -60.96875 99.1640625 C-56.70693374 99.73851497 -53.89557098 101.25176191 -50.28125 103.5390625 C-39.83975418 109.79882903 -26.83605844 113.28086684 -14.65625 110.66796875 C-11.37362281 109.59990806 -9.23387546 108.47061381 -6.96875 105.8515625 C-5.7572977 102.59578443 -5.39469477 100.60839388 -5.96875 97.1640625 C-9.68083328 92.37427762 -14.92467485 89.39959633 -19.96875 86.1640625 C-48.02419022 68.09834929 -48.02419022 68.09834929 -51.96875 53.1640625 C-53.21593789 39.43049351 -50.87799387 28.03094291 -41.96875 17.1640625 C-33.85004442 8.22362559 -22.89466043 2.86460899 -10.96875 1.1640625 C-10.23140625 1.05449219 -9.4940625 0.94492188 -8.734375 0.83203125 C-5.82816906 0.45622876 -2.91922846 0.24326904 0 0 Z " fill="#BEBEBE" transform="translate(288.96875,129.8359375)"/>
<path d="M0 0 C1.11851601 0.00068733 1.11851601 0.00068733 2.2596283 0.00138855 C3.83399042 0.00440664 5.40834967 0.01227973 6.98266602 0.0246582 C9.3967543 0.04292645 11.81045915 0.04516774 14.22460938 0.04492188 C15.75390958 0.04983686 17.28320717 0.05566509 18.8125 0.0625 C19.53647476 0.06361282 20.26044952 0.06472565 21.00636292 0.06587219 C26.10767555 0.11438465 26.10767555 0.11438465 28.33984375 1.23046875 C26.46963847 9.00940162 24.36496644 16.66211649 21.96484375 24.29296875 C21.24764238 26.59993253 20.53158036 28.9072507 19.81640625 31.21484375 C19.62274475 31.83917801 19.42908325 32.46351227 19.22955322 33.10676575 C16.55626395 41.73895458 13.95141949 50.39195748 11.33984375 59.04296875 C10.79680013 60.84098504 10.25374991 62.63899934 9.71069336 64.43701172 C8.24522532 69.28990982 6.78055408 74.14304816 5.315979 78.99621582 C3.52629354 84.92602466 1.73573087 90.85556866 -0.0546875 96.78515625 C-3.92395636 109.60002523 -7.79232961 122.41516441 -11.66015625 135.23046875 C-18.57858503 136.32322515 -25.29561563 136.41423502 -32.28515625 136.41796875 C-33.49945313 136.43021484 -34.71375 136.44246094 -35.96484375 136.45507812 C-37.1353125 136.45701172 -38.30578125 136.45894531 -39.51171875 136.4609375 C-41.10234131 136.46710083 -41.10234131 136.46710083 -42.72509766 136.47338867 C-45.75806922 136.22236499 -47.8803623 135.41221717 -50.66015625 134.23046875 C-44.38266868 112.87225413 -37.93035744 91.56849683 -31.45166016 70.27062988 C-30.6600478 67.66761214 -29.86897904 65.06442987 -29.078125 62.46118164 C-28.8178804 61.60454611 -28.5576358 60.74791058 -28.289505 59.86531639 C-27.76716737 58.145895 -27.24485887 56.42646476 -26.72257996 54.70702553 C-25.45093333 50.52175302 -24.17740448 46.33707068 -22.8996582 42.15365601 C-22.40962783 40.54890142 -21.91963697 38.94413476 -21.4296875 37.33935547 C-21.19300858 36.56419271 -20.95632965 35.78902996 -20.71247864 34.99037743 C-19.39442103 30.66553044 -18.09296704 26.33627662 -16.81192017 22.0003233 C-16.2539298 20.11348754 -15.69101838 18.22810923 -15.12792969 16.3427887 C-14.46215723 14.11196782 -13.80466489 11.87865151 -13.15722656 9.6424408 C-12.8681543 8.68028152 -12.57908203 7.71812225 -12.28125 6.72680664 C-12.03818115 5.89903214 -11.7951123 5.07125763 -11.54467773 4.21839905 C-9.3183553 -0.78518074 -4.66896948 -0.04646988 0 0 Z " fill="#BEBEBE" transform="translate(201.66015625,132.76953125)"/>
<path d="M0 0 C3.1271359 2.65332743 4.7634353 4.85280591 6.0625 8.75 C6.45864654 13.99894167 5.92807317 17.30342094 3.0625 21.75 C-0.20324016 25.20235388 -3.10326549 26.47791771 -7.8828125 26.84765625 C-12.73996729 26.61680289 -16.03275421 24.70236399 -19.3125 21.25 C-22.05264024 17.03439964 -22.35080028 13.70960335 -21.9375 8.75 C-20.58598115 5.16553696 -18.65888972 2.40773768 -15.8125 -0.1875 C-10.55970084 -2.12875186 -5.16638795 -2.19846296 0 0 Z M-12.9375 4.75 C-9.6375 4.75 -6.3375 4.75 -2.9375 4.75 C-4.82250271 2.43436913 -4.82250271 2.43436913 -7.9375 2.5 C-11.05249729 2.43436913 -11.05249729 2.43436913 -12.9375 4.75 Z M-14.9375 5.75 C-16.96642674 9.80785349 -17.10635197 12.3668051 -15.9375 16.75 C-15.2775 17.41 -14.6175 18.07 -13.9375 18.75 C-13.9375 14.46 -13.9375 10.17 -13.9375 5.75 C-14.2675 5.75 -14.5975 5.75 -14.9375 5.75 Z M-0.9375 6.75 C-0.9375 8.73 -0.9375 10.71 -0.9375 12.75 C-1.9275 13.08 -2.9175 13.41 -3.9375 13.75 C-3.2775 15.07 -2.6175 16.39 -1.9375 17.75 C-1.2775 17.75 -0.6175 17.75 0.0625 17.75 C1.56912097 14.73675805 1.24020373 12.06713623 1.0625 8.75 C0.4025 8.09 -0.2575 7.43 -0.9375 6.75 Z M-8.9375 8.75 C-8.9375 9.41 -8.9375 10.07 -8.9375 10.75 C-7.9475 10.75 -6.9575 10.75 -5.9375 10.75 C-5.9375 10.09 -5.9375 9.43 -5.9375 8.75 C-6.9275 8.75 -7.9175 8.75 -8.9375 8.75 Z M-8.9375 14.75 C-9.06125 15.53375 -9.185 16.3175 -9.3125 17.125 C-9.9375 19.75 -9.9375 19.75 -11.9375 21.75 C-9.2975 21.75 -6.6575 21.75 -3.9375 21.75 C-5.9175 18.285 -5.9175 18.285 -7.9375 14.75 C-8.2675 14.75 -8.5975 14.75 -8.9375 14.75 Z " fill="#B6B6B6" transform="translate(472.9375,135.25)"/>
</svg>
